<?xml version="1.0" encoding="UTF-8" standalone="no"?>
<svg
   xmlns:dc="http://purl.org/dc/elements/1.1/"
   xmlns:cc="http://creativecommons.org/ns#"
   xmlns:rdf="http://www.w3.org/1999/02/22-rdf-syntax-ns#"
   xmlns:svg="http://www.w3.org/2000/svg"
   xmlns="http://www.w3.org/2000/svg"
   xmlns:sodipodi="http://sodipodi.sourceforge.net/DTD/sodipodi-0.dtd"
   xmlns:inkscape="http://www.inkscape.org/namespaces/inkscape"
   width="210mm"
   height="297mm"
   viewBox="0 0 210 297"
   version="1.1"
   id="svg8"
   inkscape:version="1.0.2-2 (e86c870879, 2021-01-15)"
   sodipodi:docname="Endurance-Class-Illustration.svg"
   inkscape:export-filename="C:\Users\McClain\Documents\GitHub\MgT-2e-Custom-Assets\Illustrated Custom Spacecraft\Nomad and Support Vessels\Endurance - Life Boat\Endurance-Class-Illustration.png"
   inkscape:export-xdpi="2000"
   inkscape:export-ydpi="2000">
  <defs
     id="defs2">
    <inkscape:perspective
       sodipodi:type="inkscape:persp3d"
       inkscape:vp_x="0 : 148.5 : 1"
       inkscape:vp_y="0 : 1000 : 0"
       inkscape:vp_z="210 : 148.5 : 1"
       inkscape:persp3d-origin="105 : 99 : 1"
       id="perspective1028" />
    <inkscape:path-effect
       effect="bspline"
       id="path-effect1025"
       is_visible="true"
       lpeversion="1"
       weight="33.333333"
       steps="2"
       helper_size="0"
       apply_no_weight="true"
       apply_with_weight="true"
       only_selected="false" />
    <inkscape:path-effect
       effect="bspline"
       id="path-effect999"
       is_visible="true"
       lpeversion="1"
       weight="33.333333"
       steps="2"
       helper_size="0"
       apply_no_weight="true"
       apply_with_weight="true"
       only_selected="false" />
    <inkscape:path-effect
       effect="bspline"
       id="path-effect995"
       is_visible="true"
       lpeversion="1"
       weight="33.333333"
       steps="2"
       helper_size="0"
       apply_no_weight="true"
       apply_with_weight="true"
       only_selected="false" />
    <inkscape:path-effect
       effect="bspline"
       id="path-effect991"
       is_visible="true"
       lpeversion="1"
       weight="33.333333"
       steps="2"
       helper_size="0"
       apply_no_weight="true"
       apply_with_weight="true"
       only_selected="false" />
    <inkscape:path-effect
       effect="bspline"
       id="path-effect987"
       is_visible="true"
       lpeversion="1"
       weight="33.333333"
       steps="2"
       helper_size="0"
       apply_no_weight="true"
       apply_with_weight="true"
       only_selected="false" />
    <inkscape:path-effect
       effect="bspline"
       id="path-effect983"
       is_visible="true"
       lpeversion="1"
       weight="33.333333"
       steps="2"
       helper_size="0"
       apply_no_weight="true"
       apply_with_weight="true"
       only_selected="false" />
    <inkscape:path-effect
       effect="bspline"
       id="path-effect979"
       is_visible="true"
       lpeversion="1"
       weight="33.333333"
       steps="2"
       helper_size="0"
       apply_no_weight="true"
       apply_with_weight="true"
       only_selected="false" />
    <inkscape:path-effect
       effect="bspline"
       id="path-effect975"
       is_visible="true"
       lpeversion="1"
       weight="33.333333"
       steps="2"
       helper_size="0"
       apply_no_weight="true"
       apply_with_weight="true"
       only_selected="false" />
    <inkscape:path-effect
       effect="bspline"
       id="path-effect971"
       is_visible="true"
       lpeversion="1"
       weight="33.333333"
       steps="2"
       helper_size="0"
       apply_no_weight="true"
       apply_with_weight="true"
       only_selected="false" />
    <inkscape:path-effect
       effect="bspline"
       id="path-effect967"
       is_visible="true"
       lpeversion="1"
       weight="33.333333"
       steps="2"
       helper_size="0"
       apply_no_weight="true"
       apply_with_weight="true"
       only_selected="false" />
    <inkscape:path-effect
       effect="bspline"
       id="path-effect963"
       is_visible="true"
       lpeversion="1"
       weight="33.333333"
       steps="2"
       helper_size="0"
       apply_no_weight="true"
       apply_with_weight="true"
       only_selected="false" />
    <inkscape:path-effect
       effect="bspline"
       id="path-effect957"
       is_visible="true"
       lpeversion="1"
       weight="33.333333"
       steps="2"
       helper_size="0"
       apply_no_weight="true"
       apply_with_weight="true"
       only_selected="false" />
    <inkscape:path-effect
       effect="bspline"
       id="path-effect953"
       is_visible="true"
       lpeversion="1"
       weight="33.333333"
       steps="2"
       helper_size="0"
       apply_no_weight="true"
       apply_with_weight="true"
       only_selected="false" />
    <inkscape:path-effect
       effect="bspline"
       id="path-effect949"
       is_visible="true"
       lpeversion="1"
       weight="33.333333"
       steps="2"
       helper_size="0"
       apply_no_weight="true"
       apply_with_weight="true"
       only_selected="false" />
    <inkscape:path-effect
       effect="bspline"
       id="path-effect945"
       is_visible="true"
       lpeversion="1"
       weight="33.333333"
       steps="2"
       helper_size="0"
       apply_no_weight="true"
       apply_with_weight="true"
       only_selected="false" />
    <inkscape:path-effect
       effect="bspline"
       id="path-effect941"
       is_visible="true"
       lpeversion="1"
       weight="33.333333"
       steps="2"
       helper_size="0"
       apply_no_weight="true"
       apply_with_weight="true"
       only_selected="false" />
    <inkscape:path-effect
       effect="bspline"
       id="path-effect937"
       is_visible="true"
       lpeversion="1"
       weight="33.333333"
       steps="2"
       helper_size="0"
       apply_no_weight="true"
       apply_with_weight="true"
       only_selected="false" />
    <inkscape:path-effect
       effect="bspline"
       id="path-effect933"
       is_visible="true"
       lpeversion="1"
       weight="33.333333"
       steps="2"
       helper_size="0"
       apply_no_weight="true"
       apply_with_weight="true"
       only_selected="false" />
    <inkscape:path-effect
       effect="bspline"
       id="path-effect929"
       is_visible="true"
       lpeversion="1"
       weight="33.333333"
       steps="2"
       helper_size="0"
       apply_no_weight="true"
       apply_with_weight="true"
       only_selected="false" />
    <inkscape:path-effect
       effect="bspline"
       id="path-effect925"
       is_visible="true"
       lpeversion="1"
       weight="33.333333"
       steps="2"
       helper_size="0"
       apply_no_weight="true"
       apply_with_weight="true"
       only_selected="false" />
    <inkscape:path-effect
       effect="bspline"
       id="path-effect921"
       is_visible="true"
       lpeversion="1"
       weight="33.333333"
       steps="2"
       helper_size="0"
       apply_no_weight="true"
       apply_with_weight="true"
       only_selected="false" />
    <inkscape:path-effect
       effect="bspline"
       id="path-effect917"
       is_visible="true"
       lpeversion="1"
       weight="33.333333"
       steps="2"
       helper_size="0"
       apply_no_weight="true"
       apply_with_weight="true"
       only_selected="false" />
    <inkscape:path-effect
       effect="bspline"
       id="path-effect913"
       is_visible="true"
       lpeversion="1"
       weight="33.333333"
       steps="2"
       helper_size="0"
       apply_no_weight="true"
       apply_with_weight="true"
       only_selected="false" />
    <inkscape:path-effect
       effect="bspline"
       id="path-effect909"
       is_visible="true"
       lpeversion="1"
       weight="33.333333"
       steps="2"
       helper_size="0"
       apply_no_weight="true"
       apply_with_weight="true"
       only_selected="false" />
    <inkscape:path-effect
       effect="bspline"
       id="path-effect905"
       is_visible="true"
       lpeversion="1"
       weight="33.333333"
       steps="2"
       helper_size="0"
       apply_no_weight="true"
       apply_with_weight="true"
       only_selected="false" />
    <inkscape:path-effect
       effect="bspline"
       id="path-effect901"
       is_visible="true"
       lpeversion="1"
       weight="33.333333"
       steps="2"
       helper_size="0"
       apply_no_weight="true"
       apply_with_weight="true"
       only_selected="false" />
    <inkscape:path-effect
       effect="bspline"
       id="path-effect897"
       is_visible="true"
       lpeversion="1"
       weight="33.333333"
       steps="2"
       helper_size="0"
       apply_no_weight="true"
       apply_with_weight="true"
       only_selected="false" />
    <inkscape:path-effect
       effect="bspline"
       id="path-effect893"
       is_visible="true"
       lpeversion="1"
       weight="33.333333"
       steps="2"
       helper_size="0"
       apply_no_weight="true"
       apply_with_weight="true"
       only_selected="false" />
    <inkscape:path-effect
       effect="bspline"
       id="path-effect889"
       is_visible="true"
       lpeversion="1"
       weight="33.333333"
       steps="2"
       helper_size="0"
       apply_no_weight="true"
       apply_with_weight="true"
       only_selected="false" />
    <inkscape:path-effect
       effect="bspline"
       id="path-effect885"
       is_visible="true"
       lpeversion="1"
       weight="33.333333"
       steps="2"
       helper_size="0"
       apply_no_weight="true"
       apply_with_weight="true"
       only_selected="false" />
    <inkscape:path-effect
       effect="bspline"
       id="path-effect881"
       is_visible="true"
       lpeversion="1"
       weight="33.333333"
       steps="2"
       helper_size="0"
       apply_no_weight="true"
       apply_with_weight="true"
       only_selected="false" />
    <inkscape:path-effect
       effect="bspline"
       id="path-effect877"
       is_visible="true"
       lpeversion="1"
       weight="33.333333"
       steps="2"
       helper_size="0"
       apply_no_weight="true"
       apply_with_weight="true"
       only_selected="false" />
    <inkscape:path-effect
       effect="bspline"
       id="path-effect873"
       is_visible="true"
       lpeversion="1"
       weight="33.333333"
       steps="2"
       helper_size="0"
       apply_no_weight="true"
       apply_with_weight="true"
       only_selected="false" />
    <inkscape:path-effect
       effect="bspline"
       id="path-effect869"
       is_visible="true"
       lpeversion="1"
       weight="33.333333"
       steps="2"
       helper_size="0"
       apply_no_weight="true"
       apply_with_weight="true"
       only_selected="false" />
    <inkscape:path-effect
       effect="bspline"
       id="path-effect865"
       is_visible="true"
       lpeversion="1"
       weight="33.333333"
       steps="2"
       helper_size="0"
       apply_no_weight="true"
       apply_with_weight="true"
       only_selected="false" />
    <inkscape:path-effect
       effect="bspline"
       id="path-effect849"
       is_visible="true"
       lpeversion="1"
       weight="33.333333"
       steps="2"
       helper_size="0"
       apply_no_weight="true"
       apply_with_weight="true"
       only_selected="false" />
    <pattern
       id="EMFhbasepattern"
       patternUnits="userSpaceOnUse"
       width="6"
       height="6"
       x="0"
       y="0" />
  </defs>
  <sodipodi:namedview
     id="base"
     pagecolor="#ffffff"
     bordercolor="#666666"
     borderopacity="1.0"
     inkscape:pageopacity="0.0"
     inkscape:pageshadow="2"
     inkscape:zoom="7.9195959"
     inkscape:cx="392.51382"
     inkscape:cy="543.32526"
     inkscape:document-units="mm"
     inkscape:current-layer="layer3"
     inkscape:document-rotation="0"
     showgrid="false"
     inkscape:window-width="1920"
     inkscape:window-height="1137"
     inkscape:window-x="-8"
     inkscape:window-y="-8"
     inkscape:window-maximized="1"
     showguides="false" />
  <metadata
     id="metadata5">
    <rdf:RDF>
      <cc:Work
         rdf:about="">
        <dc:format>image/svg+xml</dc:format>
        <dc:type
           rdf:resource="http://purl.org/dc/dcmitype/StillImage" />
        <dc:title></dc:title>
      </cc:Work>
    </rdf:RDF>
  </metadata>
  <g
     inkscape:groupmode="layer"
     id="layer3"
     inkscape:label="Layer 3">
    <rect
       style="fill:#f7f9e9;fill-opacity:1;fill-rule:evenodd;stroke:none;stroke-width:0.0340461;stroke-miterlimit:4;stroke-dasharray:none;stop-color:#000000"
       id="rect1002"
       width="38.382298"
       height="25.078068"
       x="84.631218"
       y="129.5294" />
  </g>
  <g
     inkscape:groupmode="layer"
     id="layer2"
     inkscape:label="Layer 2">
    <path
       style="font-variation-settings:normal;opacity:1;vector-effect:none;fill:none;fill-opacity:1;stroke:#000000;stroke-width:0.0848724;stroke-linecap:butt;stroke-linejoin:miter;stroke-miterlimit:4;stroke-dasharray:none;stroke-dashoffset:0;stroke-opacity:1;stop-color:#000000;stop-opacity:1"
       d="m 89.224692,132.12386 c -0.680428,0.13703 -1.360944,0.27408 -1.755567,0.36859 -0.394623,0.0945 -0.503312,0.1465 -0.602583,0.22686 -0.09927,0.0803 -0.189061,0.18904 -0.283583,0.42773 -0.09452,0.23868 -0.193763,0.60729 -0.241008,0.8436 -0.04724,0.23631 -0.04252,0.34029 -0.01648,0.43482 0.02603,0.0945 0.07328,0.17957 1.157895,1.07511 1.084615,0.89554 3.206453,2.60152 4.354825,3.51123 1.148372,0.90971 1.323224,1.02312 3.10252,2.04864 1.779295,1.02551 5.162894,2.96304 7.523444,4.27918 2.36054,1.31613 3.69792,2.01082 4.73288,2.53066 1.03495,0.51983 1.76743,0.8648 2.51412,1.19561 0.74668,0.3308 1.50752,0.64743 2.09589,0.86717 0.58836,0.21974 1.00422,0.34261 1.36102,0.44185 0.35679,0.0992 0.65452,0.17485 0.91444,0.22683 0.25991,0.052 0.48202,0.0803 0.61429,0.0851 0.13227,0.005 0.17486,-0.0142 0.23862,-0.0709 0.0638,-0.0567 0.14882,-0.15119 0.20792,-0.20792 0.0591,-0.0567 0.0922,-0.0757 0.27177,-0.0993 0.17959,-0.0236 0.50566,-0.052 0.6947,-0.0662 0.18904,-0.0142 0.24102,-0.0142 0.37099,0.0118 0.12997,0.026 0.3379,0.078 0.4584,0.10396 0.1205,0.026 0.1536,0.026 0.35916,-0.0662 0.20555,-0.0922 0.58357,-0.27645 0.96163,-0.46075 m 0.99596,-0.61672 c 0.28237,-0.20557 0.56475,-0.41115 0.70122,-0.53273 0.13647,-0.12158 0.12698,-0.15946 0.12223,-0.17843 -0.005,-0.019 -0.30247,-0.3167 -0.29302,-0.32615 0.009,-0.009 0.0283,-0.0284 0.078,-0.12285 0.0496,-0.0945 0.12995,-0.2646 0.17966,-0.35208 0.0497,-0.0875 0.0684,-0.0922 0.16301,-0.10399 0.0946,-0.0118 0.2647,-0.0307 0.35916,-0.0543 0.0945,-0.0236 0.11334,-0.052 0.0709,-0.17478 -0.0425,-0.12283 -0.14645,-0.34022 -0.33546,-0.61432 -0.18902,-0.27411 -0.46311,-0.60491 -0.77737,-0.92392 -0.31425,-0.319 -0.66868,-0.62617 -1.20743,-1.0515 -0.53874,-0.42533 -1.26178,-0.96879 -2.11242,-1.56188 -0.85065,-0.5931 -1.82887,-1.2358 -3.41736,-2.23404 -1.5885,-0.99824 -3.78715,-2.35194 -5.32426,-3.2761 -1.53712,-0.92416 -2.41261,-1.41871 -4.06674,-2.24077 -1.65414,-0.82206 -4.086801,-1.97156 -5.390048,-2.56639 -1.303246,-0.59483 -1.477007,-0.63493 -2.091879,-0.75189 -0.614872,-0.11696 -1.670811,-0.31077 -2.372563,-0.41771 -0.701752,-0.10693 -1.04928,-0.12696 -1.450293,-0.0969 -0.401013,0.0301 -0.855469,0.11027 -1.310022,0.19049"
       id="path847"
       inkscape:path-effect="#path-effect849"
       inkscape:original-d="m 89.224692,132.12386 c -0.680402,0.13716 -1.360917,0.27421 -2.041542,0.41114 -0.108583,0.0521 -0.217275,0.10408 -0.32608,0.15596 -0.08968,0.1088 -0.179468,0.21749 -0.26937,0.32607 -0.09913,0.36873 -0.198372,0.73734 -0.297725,1.10584 0.0048,0.10408 0.0096,0.20805 0.01418,0.3119 0.04737,0.0852 0.09463,0.17024 0.141774,0.25519 2.122036,1.70616 4.243874,3.41214 6.365643,5.11804 0.17497,0.11353 0.349822,0.22695 0.524562,0.34026 3.383848,1.93772 6.767446,3.87526 10.151006,5.81272 1.33753,0.69482 2.67491,1.3895 4.01219,2.08408 0.73263,0.3451 1.46511,0.69007 2.1975,1.03494 0.76098,0.31675 1.52182,0.63337 2.28256,0.94989 0.41599,0.12299 0.83185,0.24586 1.24761,0.36861 0.29784,0.0757 0.59556,0.15134 0.89317,0.22684 0.22223,0.0285 0.44434,0.0568 0.66634,0.0851 0.0426,-0.0188 0.0852,-0.0377 0.1276,-0.0567 0.0852,-0.0944 0.17023,-0.18892 0.25519,-0.28355 0.0332,-0.0188 0.0663,-0.0377 0.0992,-0.0567 0.3262,-0.0283 0.65227,-0.0566 0.97824,-0.0851 0.0521,1.1e-4 0.10408,1.1e-4 0.15595,0 0.20805,0.0521 0.41598,0.10408 0.6238,0.15595 0.0332,1.2e-4 0.0663,1.2e-4 0.0993,0 0.37818,-0.18419 1.13419,-0.55291 1.13419,-0.55291 m 0.99596,-0.61672 c 0,0 0.56484,-0.41103 0.8471,-0.61671 -0.009,-0.0377 -0.0188,-0.0755 -0.0284,-0.11342 l -0.29772,-0.29773 c 0.019,-0.0188 0.0379,-0.0377 0.0567,-0.0567 0.0805,-0.17002 0.16079,-0.34014 0.24102,-0.51038 0.019,-0.005 0.0379,-0.009 0.0567,-0.0142 0.17024,-0.0188 0.34037,-0.0377 0.51039,-0.0567 0.019,-0.0283 0.0379,-0.0566 0.0567,-0.0851 -0.10385,-0.21728 -0.20782,-0.43466 -0.3119,-0.65216 -0.27399,-0.3307 -0.54808,-0.6615 -0.82228,-0.99242 -0.35433,-0.30707 -0.70876,-0.61424 -1.06331,-0.92153 -0.72295,-0.54336 -1.44598,-1.08682 -2.16914,-1.6304 -0.97814,-0.6426 -1.95636,-1.2853 -2.93471,-1.92812 -2.19864,-1.35365 -4.39729,-2.70736 -6.5961,-4.06121 -0.87542,-0.49446 -1.75091,-0.98901 -2.62653,-1.48369 -2.43265,-1.14943 -4.865316,-2.29893 -7.298143,-3.44857 -0.173657,-0.04 -0.347418,-0.0801 -0.521296,-0.1203 -1.055867,-0.1937 -2.111804,-0.38752 -3.167875,-0.58144 -0.347425,-0.0199 -0.694949,-0.04 -1.042592,-0.0601 -0.45436,0.0803 -0.908814,0.16051 -1.363389,0.2406"
       sodipodi:nodetypes="ccccccccccccccccccccccccccccccccccccccccccccc" />
    <path
       style="font-variation-settings:normal;opacity:1;vector-effect:none;fill:none;fill-opacity:1;stroke:#000000;stroke-width:0.0848724;stroke-linecap:butt;stroke-linejoin:miter;stroke-miterlimit:4;stroke-dasharray:none;stroke-dashoffset:0;stroke-opacity:1;stop-color:#000000;stop-opacity:1"
       d="m 89.224692,132.12386 -0.0074,-0.24934 0.761894,-0.15038 0.801987,0.10026"
       id="path851" />
    <path
       style="font-variation-settings:normal;opacity:1;vector-effect:none;fill:none;fill-opacity:1;stroke:#000000;stroke-width:0.0848724;stroke-linecap:butt;stroke-linejoin:miter;stroke-miterlimit:4;stroke-dasharray:none;stroke-dashoffset:0;stroke-opacity:1;stop-color:#000000;stop-opacity:1"
       d="m 89.217316,131.87452 1.393464,0.15037 17.25289,10.26552 m 0.89222,-0.38095 -17.573689,-10.05499 -0.401004,-0.0301"
       id="path853"
       sodipodi:nodetypes="cccccc" />
    <path
       style="font-variation-settings:normal;opacity:1;vector-effect:none;fill:none;fill-opacity:1;stroke:#000000;stroke-width:0.0848724;stroke-linecap:butt;stroke-linejoin:miter;stroke-miterlimit:4;stroke-dasharray:none;stroke-dashoffset:0;stroke-opacity:1;stop-color:#000000;stop-opacity:1"
       d="m 107.86367,142.29041 9.5173,6.20832 0.82229,1.3185"
       id="path855" />
    <path
       style="font-variation-settings:normal;opacity:1;vector-effect:none;fill:none;fill-opacity:1;stroke:#000000;stroke-width:0.0848724;stroke-linecap:butt;stroke-linejoin:miter;stroke-miterlimit:4;stroke-dasharray:none;stroke-dashoffset:0;stroke-opacity:1;stop-color:#000000;stop-opacity:1"
       d="m 119.28074,149.17925 -1.09166,-1.16255 -9.43319,-6.10724"
       id="path857"
       sodipodi:nodetypes="ccc" />
    <path
       style="font-variation-settings:normal;opacity:1;vector-effect:none;fill:none;fill-opacity:1;stroke:#000000;stroke-width:0.0848724;stroke-linecap:butt;stroke-linejoin:miter;stroke-miterlimit:4;stroke-dasharray:none;stroke-dashoffset:0;stroke-opacity:1;stop-color:#000000;stop-opacity:1"
       d="m 117.38097,148.49873 0.80811,-0.48203"
       id="path859" />
    <path
       style="font-variation-settings:normal;opacity:1;vector-effect:none;fill:none;fill-opacity:1;stroke:#000000;stroke-width:0.0848724;stroke-linecap:butt;stroke-linejoin:miter;stroke-miterlimit:4;stroke-dasharray:none;stroke-dashoffset:0;stroke-opacity:1;stop-color:#000000;stop-opacity:1"
       d="m 118.20326,149.81723 -10.38971,-7.41654 -17.262919,-10.15525 -1.325939,-0.12158"
       id="path861" />
    <path
       style="font-variation-settings:normal;opacity:1;vector-effect:none;fill:none;fill-opacity:1;stroke:#000000;stroke-width:0.0848724;stroke-linecap:butt;stroke-linejoin:miter;stroke-miterlimit:4;stroke-dasharray:none;stroke-dashoffset:0;stroke-opacity:1;stop-color:#000000;stop-opacity:1"
       d="m 108.85112,141.96961 c 0.28241,-0.14037 0.56478,-0.28071 0.77278,-0.42272 0.208,-0.14201 0.34166,-0.28571 0.41684,-0.421 0.0752,-0.13528 0.0919,-0.26226 0.0217,-0.45774 -0.0701,-0.19547 -0.22719,-0.45945 -0.46944,-0.74183 -0.24225,-0.28238 -0.56972,-0.58313 -1.18626,-1.05933 -0.61654,-0.4762 -1.5221,-1.12781 -2.25894,-1.64243 -0.73683,-0.51462 -1.3049,-0.89221 -1.7744,-1.18294 -0.46951,-0.29073 -0.84042,-0.49457 -1.21148,-0.69848"
       id="path863"
       inkscape:path-effect="#path-effect865"
       inkscape:original-d="m 108.85112,141.96961 c 0.28248,-0.14023 0.56485,-0.28058 0.84711,-0.42104 0.13378,-0.14359 0.26745,-0.28728 0.401,-0.43108 0.0168,-0.12687 0.0335,-0.25385 0.0501,-0.38094 -0.15695,-0.26389 -0.314,-0.52787 -0.47117,-0.79197 -0.32737,-0.30064 -0.65485,-0.60138 -0.98244,-0.90224 -0.90549,-0.65153 -1.81106,-1.30313 -2.71675,-1.95487 -0.56798,-0.3775 -1.13605,-0.75509 -1.70424,-1.13281 -0.37082,-0.20373 -0.74173,-0.40757 -1.11277,-0.61152" />
    <path
       style="font-variation-settings:normal;opacity:1;vector-effect:none;fill:none;fill-opacity:1;stroke:#000000;stroke-width:0.0848724;stroke-linecap:butt;stroke-linejoin:miter;stroke-miterlimit:4;stroke-dasharray:none;stroke-dashoffset:0;stroke-opacity:1;stop-color:#000000;stop-opacity:1"
       d="m 107.81355,142.40069 c -0.30069,0.11693 -0.60144,0.23389 -0.96233,0.32245 -0.36088,0.0885 -0.78192,0.1487 -1.22133,0.15874 -0.43942,0.01 -0.89722,-0.0301 -1.49705,-0.15703 -0.59982,-0.12697 -1.34165,-0.34084 -2.23555,-0.66664 -0.8939,-0.32581 -1.939807,-0.76355 -3.211315,-1.33832 -1.271508,-0.57476 -2.768535,-1.28652 -3.563855,-1.67414 -0.795319,-0.38762 -0.88887,-0.45111 -1.689209,-1.02588 -0.80034,-0.57477 -2.307389,-1.66078 -3.276583,-2.37185 -0.969193,-0.71108 -1.40048,-1.04718 -1.629168,-1.24831 -0.228689,-0.20114 -0.254665,-0.26726 -0.25824,-0.43268 -0.0036,-0.16542 0.01533,-0.43006 0.06849,-0.6581 0.05316,-0.22805 0.140583,-0.41944 0.242221,-0.5388 0.101638,-0.11936 0.217434,-0.16663 0.548319,-0.24206 0.330886,-0.0754 0.876822,-0.17904 1.422681,-0.28263"
       id="path867"
       inkscape:path-effect="#path-effect869"
       inkscape:original-d="m 107.81355,142.40069 c -0.30064,0.11706 -0.60139,0.23402 -0.90225,0.35087 -0.42094,0.0603 -0.84198,0.1204 -1.26314,0.18044 -0.4577,-0.04 -0.9155,-0.0801 -1.37341,-0.12029 -0.74175,-0.21376 -1.48358,-0.42762 -2.22553,-0.6416 -1.04585,-0.43765 -2.091759,-0.8754 -3.137804,-1.31326 -1.496973,-0.71167 -2.993998,-1.42343 -4.491165,-2.13531 -0.09346,-0.0634 -0.18702,-0.12687 -0.280698,-0.19048 -1.506998,-1.08594 -3.014048,-2.17195 -4.52124,-3.2581 -0.431191,-0.336 -0.862478,-0.6721 -1.293884,-1.00832 -0.02588,-0.0661 -0.05187,-0.13221 -0.07798,-0.19848 0.01902,-0.26454 0.03792,-0.52918 0.05671,-0.79393 0.08754,-0.19129 0.174967,-0.38268 0.262282,-0.57419 0.115896,-0.0471 0.231677,-0.0944 0.347345,-0.14177 0.546071,-0.1035 1.092007,-0.20711 1.637842,-0.31083" />
    <path
       style="font-variation-settings:normal;opacity:1;vector-effect:none;fill:none;fill-opacity:1;stroke:#000000;stroke-width:0.0848724;stroke-linecap:butt;stroke-linejoin:miter;stroke-miterlimit:4;stroke-dasharray:none;stroke-dashoffset:0;stroke-opacity:1;stop-color:#000000;stop-opacity:1"
       d="m 91.549782,132.05297 c 0.293082,-0.0544 0.586087,-0.10871 0.830652,-0.1477 0.244565,-0.039 0.440678,-0.0626 0.643903,-0.0733 0.203226,-0.0106 0.413516,-0.008 0.738421,0.0212 0.324905,0.0295 0.764399,0.0862 1.208629,0.15595 0.44423,0.0697 0.893176,0.1524 1.216898,0.2233 0.323722,0.0709 0.522198,0.12997 0.720548,0.189"
       id="path875"
       inkscape:path-effect="#path-effect877"
       inkscape:original-d="m 91.549782,132.05297 c 0.293112,-0.0542 0.586111,-0.10858 0.878998,-0.16304 0.196237,-0.0235 0.392353,-0.0471 0.588362,-0.0709 0.210414,0.003 0.420707,0.005 0.630893,0.007 0.439619,0.0568 0.87911,0.11353 1.318497,0.17013 0.449071,0.0828 0.898013,0.16552 1.346851,0.2481 0.198599,0.0592 0.397078,0.11826 0.59545,0.17722" />
    <path
       style="font-variation-settings:normal;opacity:1;vector-effect:none;fill:none;fill-opacity:1;stroke:#000000;stroke-width:0.0848724;stroke-linecap:butt;stroke-linejoin:miter;stroke-miterlimit:4;stroke-dasharray:none;stroke-dashoffset:0;stroke-opacity:1;stop-color:#000000;stop-opacity:1"
       d="m 86.300064,134.43087 c 0.09693,0.50806 0.193839,1.01599 0.254012,1.29335 0.06017,0.27736 0.08357,0.32416 0.658369,0.83374 0.574797,0.50959 1.700904,1.48198 2.728469,2.35082 1.027565,0.86883 1.956527,1.63406 2.494532,2.07682 0.538004,0.44277 0.685036,0.56306 2.847123,1.90308 2.162087,1.34001 6.339061,3.89966 9.092591,5.53372 2.75352,1.63407 4.08347,2.34248 5.12941,2.85375 1.04593,0.51126 1.80782,0.82537 2.5998,1.08935 0.79197,0.26398 1.614,0.47785 2.05171,0.57138 0.43772,0.0935 0.49119,0.0668 0.56468,-0.01 0.0735,-0.0768 0.16704,-0.20381 0.24058,-0.28403 0.0735,-0.0802 0.12699,-0.11363 0.2774,-0.15039 0.15041,-0.0368 0.39769,-0.0769 0.5481,-0.0868 0.15042,-0.01 0.20385,0.01 0.30076,0.0468 0.0969,0.0368 0.23725,0.0902 0.35087,0.12696 0.11362,0.0367 0.20049,0.0568 0.35083,0.0267 0.15034,-0.0301 0.3642,-0.11031 0.86711,-0.40104 0.50291,-0.29072 1.29485,-0.79195 1.73926,-1.18456 0.44442,-0.3926 0.54132,-0.67664 0.61817,-0.86544 0.0768,-0.1888 0.1337,-0.28244 0.17719,-0.33426 0.0435,-0.0518 0.0735,-0.0618 0.0969,-0.0785 0.0233,-0.0167 0.04,-0.0401 0.0734,-0.15869 0.0334,-0.1186 0.0835,-0.33248 0.15037,-0.70173 0.0668,-0.36925 0.15038,-0.89387 0.15878,-1.20629 0.008,-0.31242 -0.0584,-0.41268 -0.12535,-0.51306"
       id="path891"
       inkscape:path-effect="#path-effect893"
       inkscape:original-d="m 86.300064,134.43087 c 0.09702,0.50804 0.193928,1.01597 0.290722,1.52379 0.02351,0.0469 0.0469,0.0937 0.07018,0.14035 1.126267,0.97255 2.252378,1.94494 3.378399,2.91725 0.929106,0.76536 1.858064,1.53059 2.786928,2.29571 0.147148,0.12041 0.294176,0.24071 0.441097,0.36089 4.177246,2.55986 8.35422,5.11951 12.53116,7.67909 1.33011,0.70856 2.66006,1.41697 3.98991,2.12529 0.76202,0.31423 1.52391,0.62834 2.28569,0.94234 0.82217,0.21398 1.6442,0.42784 2.46613,0.6416 0.0536,-0.0266 0.10704,-0.0534 0.1604,-0.0802 0.0937,-0.12688 0.18724,-0.25386 0.28069,-0.38095 0.0536,-0.0333 0.10705,-0.0667 0.1604,-0.10025 0.2474,-0.04 0.49468,-0.0801 0.74185,-0.1203 0.0536,0.0202 0.10704,0.0402 0.16039,0.0601 0.14047,0.0536 0.28082,0.10705 0.42105,0.1604 0.087,0.0202 0.17388,0.0402 0.26065,0.0601 0.21398,-0.0801 0.42784,-0.16029 0.6416,-0.2406 0.79209,-0.50114 1.58403,-1.00237 2.3759,-1.50374 0.097,-0.28393 0.19392,-0.56796 0.29071,-0.85212 0.0569,-0.0934 0.11375,-0.18705 0.17042,-0.28069 0.0302,-0.01 0.0603,-0.0199 0.0902,-0.0301 0.0168,-0.0233 0.0335,-0.0467 0.0501,-0.0702 0.0502,-0.21376 0.10036,-0.42763 0.15038,-0.6416 0.0837,-0.52453 0.16719,-1.04916 0.25062,-1.57391 -0.0667,-0.10014 -0.13356,-0.20039 -0.2005,-0.30075"
       sodipodi:nodetypes="cccccccccccccccccccccccccc" />
    <path
       style="font-variation-settings:normal;opacity:1;vector-effect:none;fill:none;fill-opacity:1;stroke:#000000;stroke-width:0.0848724;stroke-linecap:butt;stroke-linejoin:miter;stroke-miterlimit:4;stroke-dasharray:none;stroke-dashoffset:0;stroke-opacity:1;stop-color:#000000;stop-opacity:1"
       d="m 118.33435,149.38703 c 0.10908,-0.0674 0.32719,-0.20219 0.44929,-0.26364 0.1221,-0.0615 0.14814,-0.0496 0.20955,0.0165 0.0614,0.0662 0.15829,0.18669 0.21975,0.24926 0.0615,0.0626 0.0875,0.0673 0.13467,0.0413 0.0472,-0.026 0.11572,-0.0827 0.16539,-0.11346 0.0497,-0.0307 0.0803,-0.0354 0.098,-0.001 0.0178,0.0343 0.0225,0.10756 0.0166,0.27058 -0.006,0.16302 -0.0224,0.41586 -0.0414,0.5576 -0.0189,0.14175 -0.0401,0.17241 -0.18545,0.2764 -0.14532,0.10398 -0.41469,0.2812 -0.5718,0.37098 -0.15711,0.0898 -0.202,0.0921 -0.31069,-0.026 -0.10868,-0.11809 -0.28117,-0.35674 -0.3651,-0.48557 -0.0839,-0.12882 -0.0792,-0.14778 -0.026,-0.1844 0.0532,-0.0366 0.1548,-0.091 0.21978,-0.13467 0.065,-0.0437 0.0933,-0.0768 0.067,-0.15935 -0.0263,-0.0826 -0.10736,-0.21478 -0.14794,-0.28096 -0.0406,-0.0662 -0.0408,-0.0661 0.0683,-0.13354 z"
       id="path895"
       inkscape:path-effect="#path-effect897"
       inkscape:original-d="m 118.22528,149.45443 c 0.21823,-0.13467 0.43634,-0.26946 0.65434,-0.40435 0.0261,0.0119 0.0521,0.0238 0.078,0.0354 0.097,0.12062 0.19387,0.24113 0.29064,0.36152 0.0261,0.005 0.0521,0.01 0.078,0.0142 0.0686,-0.0566 0.13717,-0.11331 0.20558,-0.17013 0.0308,-0.005 0.0615,-0.009 0.0922,-0.0142 0.005,0.0734 0.01,0.14661 0.0142,0.21975 -0.0164,0.25294 -0.033,0.50577 -0.0496,0.75849 -0.0211,0.0309 -0.0424,0.0615 -0.0638,0.0922 -0.26927,0.17733 -0.53863,0.35455 -0.80811,0.53165 -0.0448,0.003 -0.0897,0.005 -0.13469,0.007 -0.17238,-0.23855 -0.34487,-0.4772 -0.51747,-0.71596 0.005,-0.0188 0.01,-0.0377 0.0142,-0.0567 0.10172,-0.0542 0.20332,-0.10858 0.30482,-0.16304 0.0285,-0.033 0.0568,-0.0661 0.0851,-0.0992 -0.081,-0.13212 -0.16201,-0.26433 -0.24319,-0.39667 z" />
    <path
       style="font-variation-settings:normal;opacity:1;vector-effect:none;fill:none;fill-opacity:1;stroke:#000000;stroke-width:0.0424362;stroke-linecap:butt;stroke-linejoin:miter;stroke-miterlimit:4;stroke-dasharray:none;stroke-dashoffset:0;stroke-opacity:1;stop-color:#000000;stop-opacity:1"
       d="m 118.41237,149.75698 c 0.23987,-0.14889 0.4797,-0.29775 0.7195,-0.44659"
       id="path903"
       inkscape:original-d="m 118.41237,149.75698 c 0.23995,-0.14876 0.47978,-0.29762 0.7195,-0.44659"
       inkscape:path-effect="#path-effect905" />
    <path
       style="font-variation-settings:normal;opacity:1;vector-effect:none;fill:#f7f9e9;fill-opacity:1;stroke:#000000;stroke-width:0.0848724;stroke-linecap:butt;stroke-linejoin:miter;stroke-miterlimit:4;stroke-dasharray:none;stroke-dashoffset:0;stroke-opacity:1;stop-color:#000000;stop-opacity:1"
       d="m 92.458707,140.61964 c 0.0033,-0.1971 0.01002,-0.59141 0.0284,-0.81535 0.01838,-0.22394 0.04844,-0.27737 0.0919,-0.33087 0.04347,-0.0535 0.100251,-0.10695 0.121992,-0.14866 0.02174,-0.0417 0.0084,-0.0717 -0.1361,-0.18871 -0.144499,-0.11699 -0.420176,-0.32082 -0.571375,-0.42113 -0.151198,-0.10032 -0.17801,-0.097 -0.223988,-0.0535 -0.04598,0.0434 -0.111164,0.127 -0.150439,0.18719 -0.03927,0.0602 -0.05262,0.0969 -0.06599,0.29242 -0.01336,0.19553 -0.02673,0.54973 -0.02668,0.73519 4.9e-5,0.18546 0.01342,0.20216 0.153783,0.32245 0.140366,0.12029 0.407689,0.34417 0.558068,0.46445 0.150379,0.12028 0.183791,0.13697 0.200436,0.14529 0.01665,0.008 0.01664,0.008 0.01998,-0.18873 z"
       id="path907"
       inkscape:path-effect="#path-effect909"
       inkscape:original-d="m 92.455366,140.81675 c 0.0068,-0.39421 0.01348,-0.78852 0.02005,-1.18294 0.03019,-0.0534 0.06026,-0.10682 0.09023,-0.1604 0.05692,-0.0534 0.113727,-0.10682 0.170423,-0.1604 -0.01325,-0.03 -0.02662,-0.06 -0.0401,-0.0902 -0.275578,-0.20373 -0.551258,-0.40756 -0.827056,-0.61152 -0.02662,0.003 -0.05335,0.007 -0.0802,0.01 -0.06505,0.0836 -0.130212,0.16719 -0.195486,0.25062 -0.01325,0.0369 -0.02662,0.0736 -0.0401,0.11027 -0.01325,0.35434 -0.02662,0.70854 -0.0401,1.06264 0.01348,0.0168 0.02685,0.0335 0.0401,0.0501 0.267449,0.22401 0.534775,0.44789 0.801994,0.67167 0.03353,0.0168 0.06694,0.0335 0.10025,0.0501 z"
       sodipodi:nodetypes="ccccccccccccsc" />
    <path
       style="font-variation-settings:normal;opacity:1;vector-effect:none;fill:none;fill-opacity:1;stroke:#000000;stroke-width:0.0848724;stroke-linecap:butt;stroke-linejoin:miter;stroke-miterlimit:4;stroke-dasharray:none;stroke-dashoffset:0;stroke-opacity:1;stop-color:#000000;stop-opacity:1"
       d="m 114.72911,150.89346 c 0.0485,0.002 0.14544,0.005 0.24228,-0.0501 0.0968,-0.0551 0.19376,-0.16876 0.41938,-0.24228 0.22562,-0.0735 0.57982,-0.10694 0.78869,-0.12031 0.20887,-0.0134 0.27236,-0.007 0.36926,0.0217 0.0969,0.0284 0.22724,0.0785 0.32248,0.10524 0.0952,0.0267 0.15538,0.03 0.20711,0.0167 0.0517,-0.0134 0.0952,-0.0435 0.10186,0.23565 0.007,0.27911 -0.0234,0.86721 -0.0535,1.17293 -0.0301,0.30572 -0.0601,0.32908 -0.14694,0.35081 -0.0868,0.0217 -0.23053,0.0418 -0.32577,0.0468 -0.0952,0.005 -0.14202,-0.005 -0.24392,-0.0468 -0.1019,-0.0417 -0.25896,-0.11526 -0.36425,-0.15706 -0.1053,-0.0418 -0.15869,-0.0518 -0.32413,-0.0335 -0.16544,0.0184 -0.4428,0.0651 -0.6049,0.10023 -0.1621,0.0351 -0.20889,0.0585 -0.27407,0.14207 -0.0652,0.0836 -0.14872,0.22726 -0.20711,0.29743 -0.0584,0.0702 -0.0919,0.0668 -0.0936,-0.25393 -0.002,-0.32075 0.0283,-0.95899 0.0568,-1.27649 0.0285,-0.31751 0.0552,-0.31417 0.0685,-0.31252 0.0133,0.002 0.0133,0.002 0.0618,0.003 z"
       id="path911"
       inkscape:path-effect="#path-effect913"
       inkscape:original-d="m 114.68062,150.89179 c 0.097,0.003 0.19392,0.007 0.29072,0.01 0.097,-0.11351 0.19393,-0.22712 0.29072,-0.34085 0.35434,-0.0333 0.70854,-0.0667 1.06264,-0.10025 0.0636,0.007 0.1271,0.0135 0.19048,0.02 0.13044,0.0502 0.26076,0.10036 0.39097,0.15037 0.0603,0.003 0.12041,0.007 0.18045,0.01 0.0435,-0.03 0.087,-0.06 0.13032,-0.0902 -0.03,0.58826 -0.06,1.17637 -0.0902,1.76439 -0.03,0.0235 -0.06,0.0469 -0.0902,0.0702 -0.14358,0.0202 -0.28726,0.0402 -0.43107,0.0601 -0.0467,-0.01 -0.0935,-0.0199 -0.14035,-0.0301 -0.15694,-0.0734 -0.314,-0.14691 -0.47117,-0.22054 -0.0534,-0.01 -0.10682,-0.0199 -0.1604,-0.0301 -0.27725,0.0469 -0.5546,0.0937 -0.83207,0.14035 -0.0467,0.0235 -0.0935,0.0469 -0.14034,0.0702 -0.0834,0.14381 -0.16697,0.2875 -0.25063,0.43107 -0.0333,-0.003 -0.0667,-0.007 -0.10025,-0.01 0.0302,-0.63815 0.0603,-1.27639 0.0902,-1.91476 0.0269,0.003 0.0536,0.007 0.0802,0.01 z" />
    <path
       style="font-variation-settings:normal;opacity:1;vector-effect:none;fill:none;fill-opacity:1;stroke:#000000;stroke-width:0.0848724;stroke-linecap:butt;stroke-linejoin:miter;stroke-miterlimit:4;stroke-dasharray:none;stroke-dashoffset:0;stroke-opacity:1;stop-color:#000000;stop-opacity:1"
       d="m 114.94126,150.83164 c -0.0334,0.54145 -0.0668,1.0828 -0.10025,1.62404"
       id="path943"
       inkscape:path-effect="#path-effect945"
       inkscape:original-d="m 114.94126,150.83164 c -0.0333,0.54146 -0.0667,1.08281 -0.10025,1.62404"
       sodipodi:nodetypes="cc" />
    <path
       style="font-variation-settings:normal;opacity:1;vector-effect:none;fill:none;fill-opacity:1;stroke:#000000;stroke-width:0.0848724;stroke-linecap:butt;stroke-linejoin:miter;stroke-miterlimit:4;stroke-dasharray:none;stroke-dashoffset:0;stroke-opacity:1;stop-color:#000000;stop-opacity:1"
       d="m 116.46505,152.40556 c 0.0702,-0.62146 0.14034,-1.24299 0.21053,-1.86464"
       id="path947"
       inkscape:path-effect="#path-effect949"
       inkscape:original-d="m 116.46505,152.40556 c 0.0703,-0.62144 0.14047,-1.24298 0.21053,-1.86464" />
    <path
       style="font-variation-settings:normal;opacity:1;vector-effect:none;fill:none;fill-opacity:1;stroke:#000000;stroke-width:0.0848724;stroke-linecap:butt;stroke-linejoin:miter;stroke-miterlimit:4;stroke-dasharray:none;stroke-dashoffset:0;stroke-opacity:1;stop-color:#000000;stop-opacity:1"
       d="m 115.21194,150.68127 c -0.0434,0.54145 -0.0869,1.08279 -0.13032,1.62403"
       id="path951"
       inkscape:path-effect="#path-effect953"
       inkscape:original-d="m 115.21194,150.68127 c -0.0433,0.54146 -0.0868,1.0828 -0.13032,1.62403" />
    <path
       style="font-variation-settings:normal;opacity:1;vector-effect:none;fill:none;fill-opacity:1;stroke:#000000;stroke-width:0.0848724;stroke-linecap:butt;stroke-linejoin:miter;stroke-miterlimit:4;stroke-dasharray:none;stroke-dashoffset:0;stroke-opacity:1;stop-color:#000000;stop-opacity:1"
       d="m 116.94625,150.64117 c -0.0602,0.5949 -0.12031,1.18973 -0.18045,1.78444"
       id="path955"
       inkscape:path-effect="#path-effect957"
       inkscape:original-d="m 116.94625,150.64117 c -0.06,0.59492 -0.12019,1.18974 -0.18045,1.78444" />
    <path
       style="font-variation-settings:normal;opacity:1;vector-effect:none;fill:none;fill-opacity:1;stroke:#000000;stroke-width:0.0848724;stroke-linecap:butt;stroke-linejoin:miter;stroke-miterlimit:4;stroke-dasharray:none;stroke-dashoffset:0;stroke-opacity:1;stop-color:#000000;stop-opacity:1"
       d="m 120.08649,148.70786 c 0.0402,-0.039 0.12051,-0.11697 0.10166,-0.21144 -0.0188,-0.0945 -0.1371,-0.20562 -0.25525,-0.31668 0,0 0.0283,-0.0567 0.0283,-0.0567 0.0662,-0.13705 0.1323,-0.27405 0.17722,-0.3485 0.0449,-0.0745 0.0686,-0.0863 0.13598,-0.0945 0.0674,-0.008 0.17839,-0.013 0.23387,0.004 0.0555,0.0166 0.0555,0.0544 0.009,0.35803 -0.0461,0.30363 -0.13824,0.87309 -0.18902,1.17074 -0.0508,0.29766 -0.0602,0.32371 -0.0697,0.34971 -0.0496,0.0543 -0.0992,0.10868 -0.12987,0.13471 -0.0306,0.026 -0.0426,0.0237 -0.0555,0.0143 -0.013,-0.009 -0.0272,-0.026 -0.0414,-0.0426 -0.007,0.009 -0.0142,0.0189 -0.0177,-0.1277 -0.004,-0.14655 -0.004,-0.44847 0.002,-0.607 0.006,-0.15853 0.0177,-0.17271 0.0236,-0.17978 0.006,-0.007 0.006,-0.007 0.006,-0.007 -1e-5,-10e-6 -1e-5,-1.4e-4 0.0402,-0.0391 z"
       id="path989"
       inkscape:path-effect="#path-effect991"
       inkscape:original-d="m 120.04632,148.74684 c 0.0804,-0.0779 0.16079,-0.15584 0.24102,-0.23393 -0.11804,-0.11095 -0.35444,-0.33317 -0.35444,-0.33317 l 0.0283,-0.0567 c 0,0 0.13244,-0.27398 0.19849,-0.41114 0.0237,-0.0117 0.0474,-0.0235 0.0709,-0.0354 0.11117,-0.005 0.22222,-0.009 0.33316,-0.0142 1.1e-4,0.0379 1.1e-4,0.0757 0,0.11342 -0.092,0.56958 -0.18419,1.13903 -0.27646,1.70837 -0.009,0.0261 -0.0283,0.078 -0.0283,0.078 0,0 -0.0991,0.1088 -0.14887,0.16304 -0.0117,-0.002 -0.0235,-0.005 -0.0354,-0.007 -0.0141,-0.0164 -0.0425,-0.0496 -0.0425,-0.0496 0,0 -0.014,0.019 -0.0213,0.0283 1.1e-4,-0.30255 1.2e-4,-0.60447 1e-5,-0.90735 0.0119,-0.0141 0.0237,-0.0283 0.0354,-0.0425 1.1e-4,1e-4 1e-4,1e-4 -1e-5,-1e-5 z"
       sodipodi:nodetypes="cccccccccccccccsc" />
    <path
       style="font-variation-settings:normal;opacity:1;vector-effect:none;fill:none;fill-opacity:1;stroke:#000000;stroke-width:0.0848724;stroke-linecap:butt;stroke-linejoin:miter;stroke-miterlimit:4;stroke-dasharray:none;stroke-dashoffset:0;stroke-opacity:1;stop-color:#000000;stop-opacity:1"
       d="m 120.25898,147.67644 c -0.0425,0.23756 -0.0851,0.47503 -0.1276,0.71242"
       id="path993"
       inkscape:path-effect="#path-effect995"
       inkscape:original-d="m 120.25898,147.67644 c -0.0424,0.23759 -0.0849,0.47506 -0.1276,0.71242"
       sodipodi:nodetypes="cc" />
    <path
       style="font-variation-settings:normal;opacity:1;vector-effect:none;fill:none;fill-opacity:1;stroke:#000000;stroke-width:0.0848724;stroke-linecap:butt;stroke-linejoin:miter;stroke-miterlimit:4;stroke-dasharray:none;stroke-dashoffset:0;stroke-opacity:1;stop-color:#000000;stop-opacity:1"
       d="m 120.1881,148.52 c 0.007,0.36518 0.0142,0.73025 0.0213,1.0952"
       id="path997"
       inkscape:path-effect="#path-effect999"
       inkscape:original-d="m 120.1881,148.52 c 0.007,0.36518 0.0143,0.73025 0.0213,1.0952" />
    <path
       style="font-variation-settings:normal;vector-effect:none;fill:#f7f9e9;fill-opacity:1;stroke:#000000;stroke-width:0.0621877;stroke-linecap:butt;stroke-linejoin:miter;stroke-miterlimit:4;stroke-dasharray:none;stroke-dashoffset:0;stroke-opacity:1;stop-color:#000000"
       d="m 92.353859,140.44719 c 0.004,-0.15913 0.01208,-0.47717 0.02271,-0.66017 0.01064,-0.183 0.02384,-0.2302 0.05315,-0.2875 0.02932,-0.0573 0.07475,-0.12464 0.093,-0.17022 0.01825,-0.0456 0.0092,-0.0696 -0.102328,-0.15601 -0.111533,-0.0864 -0.326314,-0.2358 -0.44259,-0.30907 -0.116275,-0.0733 -0.134218,-0.0706 -0.165295,-0.036 -0.03108,0.0346 -0.07507,0.10103 -0.101571,0.14888 -0.0265,0.0478 -0.03555,0.0772 -0.0481,0.24267 -0.01255,0.16551 -0.02871,0.46816 -0.03219,0.62532 -0.0035,0.15715 0.0055,0.17039 0.116509,0.26694 0.111014,0.0966 0.322754,0.2753 0.440237,0.37158 0.117482,0.0963 0.139975,0.1095 0.151215,0.11612 0.01124,0.007 0.01124,0.007 0.01124,0.007 0,0 -1.9e-5,2e-5 0.004,-0.15912 z"
       id="path907-4"
       inkscape:path-effect="#path-effect1025"
       inkscape:original-d="m 92.349832,140.60633 c 0.0082,-0.31827 0.01621,-0.63631 0.02417,-0.95507 0.01334,-0.0472 0.02654,-0.0944 0.03964,-0.14175 0.04554,-0.0672 0.09096,-0.13454 0.1363,-0.20202 -0.0089,-0.0238 -0.01795,-0.0478 -0.02707,-0.0718 -0.214024,-0.14881 -0.428806,-0.29818 -0.64332,-0.4474 -0.01797,0.003 -0.03601,0.005 -0.05413,0.008 -0.04391,0.0665 -0.08789,0.13297 -0.131951,0.19934 -0.0089,0.0293 -0.01797,0.0586 -0.02707,0.0877 -0.016,0.30191 -0.03215,0.60456 -0.04833,0.90546 0.0091,0.0134 0.01813,0.0266 0.02707,0.0399 0.213024,0.17985 0.424766,0.3586 0.637037,0.53779 0.02267,0.0134 0.04518,0.0266 0.06767,0.0398 1.14e-4,1.2e-4 1.14e-4,1.3e-4 3e-6,3e-5 z"
       sodipodi:nodetypes="ccccccccccccsc" />
    <circle
       style="fill:none;fill-opacity:0.15;fill-rule:evenodd;stroke:#000000;stroke-width:0.0424362;stroke-miterlimit:4;stroke-dasharray:none;stroke-opacity:1;stop-color:#000000"
       id="path1061"
       cx="115.85354"
       cy="150.96198"
       r="0.1503731" />
    <circle
       style="fill:none;fill-opacity:0.15;fill-rule:evenodd;stroke:#000000;stroke-width:0.0424362;stroke-miterlimit:4;stroke-dasharray:none;stroke-opacity:1;stop-color:#000000"
       id="path1061-6"
       cx="115.82346"
       cy="151.39304"
       r="0.1503731" />
    <circle
       style="fill:none;fill-opacity:0.15;fill-rule:evenodd;stroke:#000000;stroke-width:0.0424362;stroke-miterlimit:4;stroke-dasharray:none;stroke-opacity:1;stop-color:#000000"
       id="path1061-6-5"
       cx="115.79339"
       cy="151.82411"
       r="0.1503731" />
  </g>
</svg>
